<mxfile host="app.diagrams.net" agent="Mozilla/5.0 (Windows NT 10.0; Win64; x64) AppleWebKit/537.36 (KHTML, like Gecko) Chrome/126.0.0.0 Safari/537.36" version="24.7.6">
  <diagram name="Diagramme de séquence - Gestion d&#39;une école" id="13e1069c-82ec-6db2-03f1-153e76fe0fe0">
    <mxGraphModel dx="1094" dy="510" grid="1" gridSize="10" guides="1" tooltips="1" connect="1" arrows="1" fold="1" page="1" pageScale="1" pageWidth="1100" pageHeight="850" background="none" math="0" shadow="0">
      <root>
        <mxCell id="0" />
        <mxCell id="1" parent="0" />
        <mxCell id="eEXtzFnebU0n6qLaqJ4J-27" value="Diagramme de séquence&amp;nbsp;" style="shape=module;align=left;spacingLeft=20;align=center;verticalAlign=middle;whiteSpace=wrap;html=1;fillColor=#fff2cc;strokeColor=#d6b656;gradientColor=#ffd966;fontColor=#f16f04;labelBackgroundColor=none;fontStyle=1;fontSize=14;" parent="1" vertex="1">
          <mxGeometry x="20" y="10" width="230" height="50" as="geometry" />
        </mxCell>
        <mxCell id="v9vu6iE-5hmHaRpdyY4m-1" value=":Person" style="shape=umlLifeline;perimeter=lifelinePerimeter;whiteSpace=wrap;html=1;container=0;dropTarget=0;collapsible=0;recursiveResize=0;outlineConnect=0;portConstraint=eastwest;newEdgeStyle={&quot;edgeStyle&quot;:&quot;elbowEdgeStyle&quot;,&quot;elbow&quot;:&quot;vertical&quot;,&quot;curved&quot;:0,&quot;rounded&quot;:0};fillColor=#66ff66;strokeColor=#82b366;" vertex="1" parent="1">
          <mxGeometry x="120" y="120" width="100" height="320" as="geometry" />
        </mxCell>
        <mxCell id="v9vu6iE-5hmHaRpdyY4m-2" value="" style="html=1;points=[];perimeter=orthogonalPerimeter;outlineConnect=0;targetShapes=umlLifeline;portConstraint=eastwest;newEdgeStyle={&quot;edgeStyle&quot;:&quot;elbowEdgeStyle&quot;,&quot;elbow&quot;:&quot;vertical&quot;,&quot;curved&quot;:0,&quot;rounded&quot;:0};fillColor=#fff2cc;strokeColor=#d6b656;" vertex="1" parent="v9vu6iE-5hmHaRpdyY4m-1">
          <mxGeometry x="45" y="70" width="10" height="210" as="geometry" />
        </mxCell>
        <mxCell id="v9vu6iE-5hmHaRpdyY4m-5" value=":System" style="shape=umlLifeline;perimeter=lifelinePerimeter;whiteSpace=wrap;html=1;container=0;dropTarget=0;collapsible=0;recursiveResize=0;outlineConnect=0;portConstraint=eastwest;newEdgeStyle={&quot;edgeStyle&quot;:&quot;elbowEdgeStyle&quot;,&quot;elbow&quot;:&quot;vertical&quot;,&quot;curved&quot;:0,&quot;rounded&quot;:0};fillColor=#66ff66;" vertex="1" parent="1">
          <mxGeometry x="360" y="120" width="100" height="320" as="geometry" />
        </mxCell>
        <mxCell id="v9vu6iE-5hmHaRpdyY4m-6" value="" style="html=1;points=[];perimeter=orthogonalPerimeter;outlineConnect=0;targetShapes=umlLifeline;portConstraint=eastwest;newEdgeStyle={&quot;edgeStyle&quot;:&quot;elbowEdgeStyle&quot;,&quot;elbow&quot;:&quot;vertical&quot;,&quot;curved&quot;:0,&quot;rounded&quot;:0};fillColor=#fff2cc;strokeColor=#d6b656;" vertex="1" parent="v9vu6iE-5hmHaRpdyY4m-5">
          <mxGeometry x="45" y="80" width="10" height="200" as="geometry" />
        </mxCell>
        <mxCell id="v9vu6iE-5hmHaRpdyY4m-7" value="request_details(lesson_id) : LessonDetail" style="html=1;verticalAlign=bottom;endArrow=block;edgeStyle=elbowEdgeStyle;elbow=vertical;curved=0;rounded=0;" edge="1" parent="1" source="v9vu6iE-5hmHaRpdyY4m-2" target="v9vu6iE-5hmHaRpdyY4m-6">
          <mxGeometry relative="1" as="geometry">
            <mxPoint x="275" y="210" as="sourcePoint" />
            <Array as="points">
              <mxPoint x="320" y="240" />
              <mxPoint x="260" y="200" />
            </Array>
          </mxGeometry>
        </mxCell>
        <mxCell id="v9vu6iE-5hmHaRpdyY4m-8" value="LessonDetails" style="html=1;verticalAlign=bottom;endArrow=open;dashed=1;endSize=8;edgeStyle=elbowEdgeStyle;elbow=vertical;curved=0;rounded=0;" edge="1" parent="1">
          <mxGeometry relative="1" as="geometry">
            <mxPoint x="175" y="360" as="targetPoint" />
            <Array as="points">
              <mxPoint x="340" y="360" />
              <mxPoint x="270" y="400" />
            </Array>
            <mxPoint x="405" y="360" as="sourcePoint" />
          </mxGeometry>
        </mxCell>
        <mxCell id="v9vu6iE-5hmHaRpdyY4m-26" value=":Lesson" style="shape=umlLifeline;perimeter=lifelinePerimeter;whiteSpace=wrap;html=1;container=0;dropTarget=0;collapsible=0;recursiveResize=0;outlineConnect=0;portConstraint=eastwest;newEdgeStyle={&quot;edgeStyle&quot;:&quot;elbowEdgeStyle&quot;,&quot;elbow&quot;:&quot;vertical&quot;,&quot;curved&quot;:0,&quot;rounded&quot;:0};fillColor=#66FF66;" vertex="1" parent="1">
          <mxGeometry x="600" y="120" width="100" height="320" as="geometry" />
        </mxCell>
        <mxCell id="v9vu6iE-5hmHaRpdyY4m-27" value="" style="html=1;points=[];perimeter=orthogonalPerimeter;outlineConnect=0;targetShapes=umlLifeline;portConstraint=eastwest;newEdgeStyle={&quot;edgeStyle&quot;:&quot;elbowEdgeStyle&quot;,&quot;elbow&quot;:&quot;vertical&quot;,&quot;curved&quot;:0,&quot;rounded&quot;:0};fillColor=#fff2cc;strokeColor=#d6b656;" vertex="1" parent="v9vu6iE-5hmHaRpdyY4m-26">
          <mxGeometry x="45" y="80" width="10" height="200" as="geometry" />
        </mxCell>
        <mxCell id="v9vu6iE-5hmHaRpdyY4m-28" value="get_details(lesson_id)" style="html=1;verticalAlign=bottom;endArrow=block;edgeStyle=elbowEdgeStyle;elbow=vertical;curved=0;rounded=0;" edge="1" parent="1" source="v9vu6iE-5hmHaRpdyY4m-6" target="v9vu6iE-5hmHaRpdyY4m-27">
          <mxGeometry relative="1" as="geometry">
            <mxPoint x="420" y="240" as="sourcePoint" />
            <Array as="points">
              <mxPoint x="450" y="280" />
              <mxPoint x="505" y="240" />
            </Array>
            <mxPoint x="640" y="240" as="targetPoint" />
          </mxGeometry>
        </mxCell>
        <mxCell id="v9vu6iE-5hmHaRpdyY4m-29" value="LessonDetails" style="html=1;verticalAlign=bottom;endArrow=open;dashed=1;endSize=8;edgeStyle=elbowEdgeStyle;elbow=vertical;curved=0;rounded=0;" edge="1" parent="1" source="v9vu6iE-5hmHaRpdyY4m-27" target="v9vu6iE-5hmHaRpdyY4m-6">
          <mxGeometry relative="1" as="geometry">
            <mxPoint x="450" y="280" as="targetPoint" />
            <Array as="points">
              <mxPoint x="460" y="320" />
              <mxPoint x="505" y="280" />
            </Array>
            <mxPoint x="640" y="280" as="sourcePoint" />
          </mxGeometry>
        </mxCell>
        <mxCell id="v9vu6iE-5hmHaRpdyY4m-37" value=":Parent" style="shape=umlLifeline;perimeter=lifelinePerimeter;whiteSpace=wrap;html=1;container=0;dropTarget=0;collapsible=0;recursiveResize=0;outlineConnect=0;portConstraint=eastwest;newEdgeStyle={&quot;edgeStyle&quot;:&quot;elbowEdgeStyle&quot;,&quot;elbow&quot;:&quot;vertical&quot;,&quot;curved&quot;:0,&quot;rounded&quot;:0};fillColor=#66ff66;strokeColor=#82b366;" vertex="1" parent="1">
          <mxGeometry x="120" y="520" width="100" height="360" as="geometry" />
        </mxCell>
        <mxCell id="v9vu6iE-5hmHaRpdyY4m-38" value="" style="html=1;points=[];perimeter=orthogonalPerimeter;outlineConnect=0;targetShapes=umlLifeline;portConstraint=eastwest;newEdgeStyle={&quot;edgeStyle&quot;:&quot;elbowEdgeStyle&quot;,&quot;elbow&quot;:&quot;vertical&quot;,&quot;curved&quot;:0,&quot;rounded&quot;:0};fillColor=#fff2cc;strokeColor=#d6b656;" vertex="1" parent="v9vu6iE-5hmHaRpdyY4m-37">
          <mxGeometry x="45" y="70" width="10" height="250" as="geometry" />
        </mxCell>
        <mxCell id="v9vu6iE-5hmHaRpdyY4m-39" value=":System" style="shape=umlLifeline;perimeter=lifelinePerimeter;whiteSpace=wrap;html=1;container=0;dropTarget=0;collapsible=0;recursiveResize=0;outlineConnect=0;portConstraint=eastwest;newEdgeStyle={&quot;edgeStyle&quot;:&quot;elbowEdgeStyle&quot;,&quot;elbow&quot;:&quot;vertical&quot;,&quot;curved&quot;:0,&quot;rounded&quot;:0};fillColor=#66ff66;" vertex="1" parent="1">
          <mxGeometry x="360" y="520" width="100" height="360" as="geometry" />
        </mxCell>
        <mxCell id="v9vu6iE-5hmHaRpdyY4m-40" value="" style="html=1;points=[];perimeter=orthogonalPerimeter;outlineConnect=0;targetShapes=umlLifeline;portConstraint=eastwest;newEdgeStyle={&quot;edgeStyle&quot;:&quot;elbowEdgeStyle&quot;,&quot;elbow&quot;:&quot;vertical&quot;,&quot;curved&quot;:0,&quot;rounded&quot;:0};fillColor=#fff2cc;strokeColor=#d6b656;" vertex="1" parent="v9vu6iE-5hmHaRpdyY4m-39">
          <mxGeometry x="45" y="80" width="10" height="240" as="geometry" />
        </mxCell>
        <mxCell id="v9vu6iE-5hmHaRpdyY4m-41" value="add_absence(student_id, date,&amp;nbsp;&lt;div&gt;reason) : Confirmation&lt;/div&gt;" style="html=1;verticalAlign=bottom;endArrow=block;edgeStyle=elbowEdgeStyle;elbow=vertical;curved=0;rounded=0;" edge="1" parent="1" source="v9vu6iE-5hmHaRpdyY4m-38" target="v9vu6iE-5hmHaRpdyY4m-40">
          <mxGeometry relative="1" as="geometry">
            <mxPoint x="275" y="610" as="sourcePoint" />
            <Array as="points">
              <mxPoint x="310" y="640" />
              <mxPoint x="260" y="600" />
            </Array>
          </mxGeometry>
        </mxCell>
        <mxCell id="v9vu6iE-5hmHaRpdyY4m-42" value="Confirmation" style="html=1;verticalAlign=bottom;endArrow=open;dashed=1;endSize=8;edgeStyle=elbowEdgeStyle;elbow=vertical;curved=0;rounded=0;" edge="1" parent="1" source="v9vu6iE-5hmHaRpdyY4m-40" target="v9vu6iE-5hmHaRpdyY4m-38">
          <mxGeometry x="0.0017" relative="1" as="geometry">
            <mxPoint x="275" y="685" as="targetPoint" />
            <Array as="points">
              <mxPoint x="380" y="800" />
              <mxPoint x="320" y="760" />
              <mxPoint x="340" y="720" />
              <mxPoint x="270" y="760" />
            </Array>
            <mxPoint as="offset" />
          </mxGeometry>
        </mxCell>
        <mxCell id="v9vu6iE-5hmHaRpdyY4m-43" value=":Student" style="shape=umlLifeline;perimeter=lifelinePerimeter;whiteSpace=wrap;html=1;container=0;dropTarget=0;collapsible=0;recursiveResize=0;outlineConnect=0;portConstraint=eastwest;newEdgeStyle={&quot;edgeStyle&quot;:&quot;elbowEdgeStyle&quot;,&quot;elbow&quot;:&quot;vertical&quot;,&quot;curved&quot;:0,&quot;rounded&quot;:0};fillColor=#66FF66;" vertex="1" parent="1">
          <mxGeometry x="600" y="520" width="100" height="360" as="geometry" />
        </mxCell>
        <mxCell id="v9vu6iE-5hmHaRpdyY4m-44" value="" style="html=1;points=[];perimeter=orthogonalPerimeter;outlineConnect=0;targetShapes=umlLifeline;portConstraint=eastwest;newEdgeStyle={&quot;edgeStyle&quot;:&quot;elbowEdgeStyle&quot;,&quot;elbow&quot;:&quot;vertical&quot;,&quot;curved&quot;:0,&quot;rounded&quot;:0};fillColor=#fff2cc;strokeColor=#d6b656;" vertex="1" parent="v9vu6iE-5hmHaRpdyY4m-43">
          <mxGeometry x="45" y="80" width="10" height="240" as="geometry" />
        </mxCell>
        <mxCell id="v9vu6iE-5hmHaRpdyY4m-45" value="find_student(student_id)" style="html=1;verticalAlign=bottom;endArrow=block;edgeStyle=elbowEdgeStyle;elbow=vertical;curved=0;rounded=0;" edge="1" parent="1" source="v9vu6iE-5hmHaRpdyY4m-40" target="v9vu6iE-5hmHaRpdyY4m-44">
          <mxGeometry x="0.0017" relative="1" as="geometry">
            <mxPoint x="420" y="640" as="sourcePoint" />
            <Array as="points">
              <mxPoint x="480" y="680" />
              <mxPoint x="505" y="640" />
            </Array>
            <mxPoint x="640" y="640" as="targetPoint" />
            <mxPoint as="offset" />
          </mxGeometry>
        </mxCell>
        <mxCell id="v9vu6iE-5hmHaRpdyY4m-46" value="AbsenceCreated" style="html=1;verticalAlign=bottom;endArrow=open;dashed=1;endSize=8;edgeStyle=elbowEdgeStyle;elbow=vertical;curved=0;rounded=0;" edge="1" parent="1" source="v9vu6iE-5hmHaRpdyY4m-44" target="v9vu6iE-5hmHaRpdyY4m-40">
          <mxGeometry x="0.0017" relative="1" as="geometry">
            <mxPoint x="450" y="680" as="targetPoint" />
            <Array as="points">
              <mxPoint x="600" y="760" />
              <mxPoint x="610" y="720" />
              <mxPoint x="505" y="680" />
            </Array>
            <mxPoint x="640" y="680" as="sourcePoint" />
            <mxPoint as="offset" />
          </mxGeometry>
        </mxCell>
        <mxCell id="v9vu6iE-5hmHaRpdyY4m-47" value=":Absence" style="shape=umlLifeline;perimeter=lifelinePerimeter;whiteSpace=wrap;html=1;container=0;dropTarget=0;collapsible=0;recursiveResize=0;outlineConnect=0;portConstraint=eastwest;newEdgeStyle={&quot;edgeStyle&quot;:&quot;elbowEdgeStyle&quot;,&quot;elbow&quot;:&quot;vertical&quot;,&quot;curved&quot;:0,&quot;rounded&quot;:0};fillColor=#66FF66;" vertex="1" parent="1">
          <mxGeometry x="840" y="520" width="100" height="360" as="geometry" />
        </mxCell>
        <mxCell id="v9vu6iE-5hmHaRpdyY4m-48" value="" style="html=1;points=[];perimeter=orthogonalPerimeter;outlineConnect=0;targetShapes=umlLifeline;portConstraint=eastwest;newEdgeStyle={&quot;edgeStyle&quot;:&quot;elbowEdgeStyle&quot;,&quot;elbow&quot;:&quot;vertical&quot;,&quot;curved&quot;:0,&quot;rounded&quot;:0};fillColor=#fff2cc;strokeColor=#d6b656;" vertex="1" parent="v9vu6iE-5hmHaRpdyY4m-47">
          <mxGeometry x="45" y="80" width="10" height="240" as="geometry" />
        </mxCell>
        <mxCell id="v9vu6iE-5hmHaRpdyY4m-49" value="create_absence(date, reason)" style="html=1;verticalAlign=bottom;endArrow=block;edgeStyle=elbowEdgeStyle;elbow=vertical;curved=0;rounded=0;" edge="1" parent="1" source="v9vu6iE-5hmHaRpdyY4m-44" target="v9vu6iE-5hmHaRpdyY4m-48">
          <mxGeometry x="0.0017" relative="1" as="geometry">
            <mxPoint x="660" y="680" as="sourcePoint" />
            <Array as="points">
              <mxPoint x="700" y="720" />
              <mxPoint x="750" y="680" />
            </Array>
            <mxPoint x="890" y="680" as="targetPoint" />
            <mxPoint as="offset" />
          </mxGeometry>
        </mxCell>
      </root>
    </mxGraphModel>
  </diagram>
</mxfile>
